<?xml version="1.0" encoding="UTF-8"?>
<!-- Generator: visioncortex VTracer 0.6.3 -->
<svg version="1.1" xmlns="http://www.w3.org/2000/svg" width="20" height="20">
<path d="M0 0 C8.58 0 17.16 0 26 0 C26 2.97 26 5.94 26 9 C28.31 9 30.62 9 33 9 C33 17.25 33 25.5 33 34 C30.69 34 28.38 34 26 34 C26 36.31 26 38.62 26 41 C17.42 41 8.84 41 0 41 C0 38.69 0 36.38 0 34 C-2.31 34 -4.62 34 -7 34 C-7 25.75 -7 17.5 -7 9 C-4.69 9 -2.38 9 0 9 C0 6.03 0 3.06 0 0 Z " fill="#010101" transform="translate(11,4)"/>
<path d="M0 0 C1.65 0 3.3 0 5 0 C5.33 0.66 5.66 1.32 6 2 C13.92 2 21.84 2 30 2 C30.33 1.34 30.66 0.68 31 0 C32.65 0 34.3 0 36 0 C36 6.27 36 12.54 36 19 C34.35 19 32.7 19 31 19 C31 16.03 31 13.06 31 10 C22.42 10 13.84 10 5 10 C5 12.97 5 15.94 5 19 C3.35 19 1.7 19 0 19 C0 12.73 0 6.46 0 0 Z " fill="#F9F9F9" transform="translate(6,15)"/>
<path d="M0 0 C7.26 0 14.52 0 22 0 C22 4.62 22 9.24 22 14 C14.74 14 7.48 14 0 14 C0 9.38 0 4.76 0 0 Z " fill="#FEFEFE" transform="translate(13,27)"/>
<path d="M0 0 C7.26 0 14.52 0 22 0 C22 3.3 22 6.6 22 10 C14.74 10 7.48 10 0 10 C0 6.7 0 3.4 0 0 Z " fill="#FEFEFE" transform="translate(13,6)"/>
</svg>
