<?xml version="1.0" encoding="UTF-8"?>
<!-- Generator: visioncortex VTracer 0.6.3 -->
<svg version="1.1" xmlns="http://www.w3.org/2000/svg" width="20" height="20">
<path d="M0 0 C3.96 0 7.92 0 12 0 C12 1.32 12 2.64 12 4 C12.99 4 13.98 4 15 4 C15 7.63 15 11.26 15 15 C14.01 15 13.02 15 12 15 C12 15.99 12 16.98 12 18 C8.04 18 4.08 18 0 18 C0 17.01 0 16.02 0 15 C-0.99 15 -1.98 15 -3 15 C-3 11.37 -3 7.74 -3 4 C-2.01 4 -1.02 4 0 4 C0 2.68 0 1.36 0 0 Z " fill="#3A3A3A" transform="translate(4,1)"/>
<path d="M0 0 C1.96 0.14 3.92 0.29 5.88 0.44 C7.51 0.56 7.51 0.56 9.18 0.68 C12 1 12 1 14 2 C14 3.65 14 5.3 14 7 C13.34 7 12.68 7 12 7 C12 7.99 12 8.98 12 10 C8.7 10 5.4 10 2 10 C2 9.01 2 8.02 2 7 C1.34 7 0.68 7 0 7 C0 4.69 0 2.38 0 0 Z " fill="#C9C9C9" transform="translate(3,7)"/>
<path d="M0 0 C1.96 0.14 3.92 0.29 5.88 0.44 C7.51 0.56 7.51 0.56 9.18 0.68 C12 1 12 1 14 2 C14 3.65 14 5.3 14 7 C13.34 6.01 12.68 5.02 12 4 C9.64 3.52 9.64 3.52 7 3.62 C6.11 3.62 5.23 3.61 4.31 3.6 C3.55 3.73 2.79 3.86 2 4 C1.34 4.99 0.68 5.98 0 7 C0 4.69 0 2.38 0 0 Z " fill="#FBFBFB" transform="translate(3,7)"/>
<path d="M0 0 C2.64 0 5.28 0 8 0 C8 0.99 8 1.98 8 3 C5.36 3 2.72 3 0 3 C0 2.01 0 1.02 0 0 Z " fill="#FFFFFF" transform="translate(6,3)"/>
</svg>
